<?xml version="1.0" encoding="utf-8"?>
<!-- Generator: Adobe Illustrator 24.0.1, SVG Export Plug-In . SVG Version: 6.00 Build 0)  -->
<svg version="1.1" id="Layer_1" xmlns="http://www.w3.org/2000/svg" xmlns:xlink="http://www.w3.org/1999/xlink" x="0px" y="0px"
	 viewBox="0 0 432 288" style="enable-background:new 0 0 432 288;" xml:space="preserve">
<style type="text/css">
	.st0{fill:#3F9BFF;stroke:#000000;stroke-miterlimit:10;}
	.st1{fill:#D58FDF;}
	.st2{fill:#9E005D;}
	.st3{fill:#FFFFFF;stroke:#000000;stroke-width:2;stroke-miterlimit:10;}
	.st4{fill:#5F0010;}
	.st5{fill:#42210B;stroke:#000000;stroke-miterlimit:10;}
	.st6{fill:#666666;}
	.st7{fill:#666666;stroke:#000000;stroke-width:2;stroke-miterlimit:10;}
</style>
<rect y="0.41" class="st0" width="432" height="287.17"/>
<g>
	<g>
		<g>
			<path d="M188.5,169.07c-7.36,13.64-13.14,28.15-17.13,43.13c1.85-1.05,3.69-2.1,5.54-3.14c-6.62-2.72-13.4-5-20.32-6.85
				c-2.27-0.61-4.99,0.76-5.54,3.14c-0.54,2.36,0.71,4.89,3.14,5.54c6.91,1.84,13.7,4.13,20.32,6.85c2.24,0.92,4.97-1.01,5.54-3.14
				c3.92-14.74,9.08-27.75,16.22-40.98c1.12-2.07,0.58-5-1.61-6.16C192.56,166.35,189.7,166.86,188.5,169.07L188.5,169.07z"/>
		</g>
	</g>
	<g>
		<g>
			<path d="M234.91,172.89c5.57,18.18,9.65,36.8,12.19,55.65c0.42,3.09,4.34,3.82,6.61,2.69c8.42-4.21,15.98-7.51,24.56-10.73
				c2.2-0.82,3.94-3.08,3.14-5.54c-0.7-2.15-3.18-4.03-5.54-3.14c-9.1,3.41-18.03,7.28-26.71,11.63c2.2,0.9,4.41,1.79,6.61,2.69
				c-2.54-18.85-6.62-37.47-12.19-55.65c-0.69-2.25-3.18-3.91-5.54-3.14C235.79,168.09,234.18,170.48,234.91,172.89L234.91,172.89z"
				/>
		</g>
	</g>
</g>
<g>
	<g>
		<path class="st1" d="M175.58,90.96c-2.94-3.81-7.2-6.84-12.04-7.48s-10.18,1.49-12.44,5.72s-0.55,10.29,3.96,12.13
			c-7.62,3.86-14.48,10.71-14.96,19.09c-0.48,8.38,8.25,16.93,16.32,14.07c-5.01,4.85-7.28,12.59-4.62,18.98
			c2.66,6.39,10.67,10.46,17.26,8c3.47-1.29,6.26-4.22,7.33-7.7c-0.58,6.68,3.81,13.49,10.22,15.86c6.42,2.38,14.31,0.12,18.41-5.27
			c1.26,8.69,9.48,15.91,18.45,16.21c8.98,0.3,17.68-6.35,19.54-14.94c6.49,2.16,14.6,3.99,19.45-0.75
			c4.3-4.2,2.56-12.54-3.07-14.76c5.88-1.73,11.62-5,14.5-10.3c2.88-5.3,1.89-12.83-3.3-16.04c5.05-3.11,10.35-6.48,12.98-11.73
			c2.63-5.24,1.23-12.87-4.33-14.98c-4.13-1.57-9.59,0.09-12.67-3.03c-1.06-1.08-1.59-2.53-2.27-3.87
			c-5-9.82-20.35-12.55-28.57-5.07c-6.8-8.91-22.8-8.55-29.17,0.66c-2.79-6-9.94-9.74-16.59-8.68c-6.65,1.06-12.22,6.82-12.92,13.37
			"/>
		<g>
			<path d="M176.64,89.9c-4.24-5.4-10.98-9.13-17.97-7.7c-6.13,1.26-10.96,6.54-9.91,12.99c0.52,3.17,2.53,6.13,5.53,7.43
				c0-0.86,0-1.73,0-2.59c-6.51,3.34-12.62,8.71-14.89,15.87c-2.19,6.91,0.49,14.26,6.48,18.31c3.2,2.17,7.22,2.95,10.92,1.71
				c-0.49-0.84-0.97-1.67-1.46-2.51c-5.51,5.45-8.06,14.19-4.59,21.41c3.08,6.39,11.14,10.41,18.04,8.29
				c4.28-1.32,7.64-4.73,9.02-8.96c-0.98-0.13-1.96-0.27-2.95-0.4c-0.55,7.49,4.33,14.72,11.32,17.31
				c6.88,2.55,15.36,0.12,19.87-5.65c-0.84-0.22-1.67-0.44-2.51-0.66c1.16,7.41,6.82,13.55,13.75,16.11
				c7.14,2.64,15.11,0.68,20.74-4.28c3.14-2.76,5.46-6.47,6.39-10.56c-0.62,0.35-1.23,0.7-1.85,1.05c5.61,1.85,12.28,3.6,17.93,0.95
				c4.98-2.34,7.01-8.13,5.11-13.19c-1.06-2.84-3.06-4.99-5.86-6.16c0,0.96,0,1.93,0,2.89c6.59-1.98,13.42-5.86,16.11-12.54
				c2.33-5.78,0.86-13.06-4.55-16.54c0,0.86,0,1.73,0,2.59c5.64-3.48,12.13-7.55,14.32-14.2c1.7-5.14,0.31-12.04-4.83-14.72
				c-2.87-1.49-6.11-1.23-9.22-1.6c-1.42-0.16-2.96-0.51-3.99-1.58c-1.2-1.23-1.67-3.03-2.55-4.48c-2.79-4.63-7.78-7.67-13.02-8.71
				c-6.12-1.22-12.67,0.03-17.4,4.25c0.71,0,1.41,0,2.12,0c-7.6-9.75-24.49-8.99-31.53,0.96c0.86,0,1.73,0,2.59,0
				c-3.25-6.75-11.13-10.6-18.46-9.34c-7.26,1.25-12.98,7.56-13.85,14.78c-0.23,1.91,2.77,1.9,3,0c0.72-5.94,5.81-10.93,11.65-11.89
				c6.08-1,12.43,2.47,15.07,7.96c0.53,1.1,2,0.84,2.59,0c6.04-8.53,20.51-8.44,26.82-0.35c0.52,0.66,1.58,0.49,2.12,0
				c7.07-6.31,20.01-4.65,25.31,3.23c1.64,2.44,2.29,5.43,5.05,6.95c2.51,1.39,5.49,1.26,8.26,1.49c2.54,0.21,4.94,0.93,6.41,3.15
				c1.33,2.01,1.75,4.53,1.46,6.89c-0.85,7-8.02,11.26-13.45,14.61c-0.98,0.61-0.95,1.98,0,2.59c4.33,2.79,5.14,8.96,3.06,13.4
				c-2.56,5.45-8.38,8.54-13.9,10.2c-1.53,0.46-1.3,2.35,0,2.89c4.52,1.89,5.9,8.82,2.41,12.26c-4.66,4.58-12.64,2.13-17.99,0.36
				c-0.75-0.25-1.67,0.29-1.85,1.05c-1.44,6.29-6.54,11.32-12.68,13.13c-6.34,1.87-13.07-0.23-17.63-4.91
				c-2.55-2.61-4.23-5.88-4.79-9.49c-0.16-1.06-1.84-1.51-2.51-0.66c-3.83,4.91-10.69,7.04-16.62,5c-5.97-2.05-9.92-8.31-9.46-14.54
				c0.13-1.75-2.44-1.94-2.95-0.4c-2.02,6.19-8.83,8.75-14.66,6.38c-5.88-2.39-9.01-8.49-7.88-14.68c0.66-3.63,2.46-6.92,5.08-9.51
				c1.03-1.02-0.01-2.99-1.46-2.51c-5.68,1.91-11.3-2.28-13.48-7.4c-2.49-5.84,0.35-12.19,4.42-16.52c2.54-2.69,5.58-4.81,8.86-6.49
				c0.93-0.48,1.03-2.14,0-2.59c-2.66-1.15-4.18-3.77-4.21-6.63c-0.03-3.12,1.89-5.66,4.56-7.12c6.69-3.65,14.1,0.32,18.37,5.75
				C175.71,93.54,177.82,91.4,176.64,89.9L176.64,89.9z"/>
		</g>
	</g>
	<g>
		<path class="st1" d="M208.05,85.99c-1.37,2.93-2.74,5.86-4.11,8.79c-1.17,2.51-2.34,5.46-1.05,7.91c1.42,2.68,5.22,3.53,6.55,6.25
			"/>
		<g>
			<path d="M206.75,85.24c-1.25,2.66-2.49,5.33-3.74,7.99c-1.05,2.25-2.25,4.64-2.19,7.18c0.05,2.28,1.2,4.11,2.95,5.49
				c1.5,1.18,3.44,2.06,4.37,3.8c0.91,1.71,3.5,0.19,2.59-1.51c-0.86-1.61-2.31-2.66-3.79-3.68c-1.49-1.03-3.08-2.1-3.13-4.1
				c-0.06-2.27,1.22-4.47,2.16-6.47c1.12-2.4,2.24-4.79,3.36-7.19C210.15,85.01,207.57,83.49,206.75,85.24L206.75,85.24z"/>
		</g>
	</g>
	<g>
		<path class="st1" d="M209.38,108.87c-2.74,2.73-5.04,6.08-5.6,9.86s0.93,8.02,4.3,9.97"/>
		<g>
			<path d="M208.32,107.81c-3.17,3.18-5.81,7.17-6.13,11.76c-0.28,4.08,1.59,8.28,5.13,10.43c1.66,1,3.17-1.59,1.51-2.59
				c-2.75-1.66-3.94-5-3.62-8.12c0.38-3.65,2.72-6.84,5.23-9.36C211.8,108.56,209.68,106.44,208.32,107.81L208.32,107.81z"/>
		</g>
	</g>
	<g>
		<path class="st1" d="M208.26,128.47c-2.33,0.6-4.1,2.58-4.96,4.79c-0.86,2.2-0.93,4.62-0.85,6.98c0.05,1.44,0.17,2.93,0.84,4.21
			c1.2,2.29,3.84,3.43,6.28,4.4"/>
		<g>
			<path d="M207.86,127.02c-5.47,1.56-7.02,7.42-6.93,12.47c0.04,2.61,0.33,5.2,2.14,7.22c1.6,1.78,3.93,2.72,6.1,3.58
				c0.76,0.3,1.64-0.33,1.85-1.05c0.24-0.85-0.3-1.55-1.05-1.85c-1.61-0.64-3.35-1.33-4.58-2.6c-1.39-1.42-1.43-3.44-1.46-5.31
				c-0.06-3.62,0.64-8.41,4.73-9.58C210.51,129.39,209.73,126.49,207.86,127.02L207.86,127.02z"/>
		</g>
	</g>
	<g>
		<path class="st1" d="M210.15,149.49c-4.48,3.46-6.59,9.59-5.16,14.99"/>
		<g>
			<path d="M209.09,148.43c-4.86,3.81-7.07,10.49-5.54,16.45c0.48,1.87,3.37,1.08,2.89-0.8c-1.29-5.02,0.74-10.37,4.77-13.53
				c0.64-0.5,0.52-1.6,0-2.12C210.58,147.8,209.73,147.93,209.09,148.43L209.09,148.43z"/>
		</g>
	</g>
	<g>
		<path class="st1" d="M163.21,102.99c3.88-3.16,10.72-1.5,12.63,3.07"/>
		<g>
			<path class="st2" d="M163.74,103.52c3.58-2.85,9.66-1.23,11.46,2.92c0.38,0.88,1.67,0.12,1.3-0.76
				c-2.22-5.13-9.56-6.61-13.81-3.22C161.93,103.06,162.99,104.12,163.74,103.52L163.74,103.52z"/>
		</g>
	</g>
	<g>
		<path class="st1" d="M187.25,104.13c-1.09-3.58,3.04-7.52,6.67-6.37"/>
		<g>
			<path class="st2" d="M187.98,103.93c-0.23-0.77-0.2-1.46,0.06-2.25c0.24-0.73,0.72-1.42,1.31-1.98c1.18-1.13,2.83-1.69,4.38-1.22
				c0.93,0.28,1.32-1.16,0.4-1.45c-3.21-0.98-6.77,1.39-7.61,4.53c-0.24,0.9-0.24,1.86,0.02,2.76
				C186.8,105.26,188.25,104.86,187.98,103.93L187.98,103.93z"/>
		</g>
	</g>
	<g>
		<path class="st1" d="M154.1,115.36c4.15-2.08,9.96,0.61,10.96,5.06"/>
		<g>
			<path class="st2" d="M154.48,116.01c3.73-1.82,8.9,0.55,9.85,4.61c0.22,0.94,1.67,0.54,1.45-0.4c-1.19-5.05-7.49-7.73-12.06-5.51
				C152.85,115.13,153.61,116.43,154.48,116.01L154.48,116.01z"/>
		</g>
	</g>
	<g>
		<path class="st1" d="M178.06,121.82c5.89-2.77,12.82-3.38,19.11-1.66"/>
		<g>
			<path class="st2" d="M178.44,122.47c5.78-2.67,12.39-3.22,18.53-1.59c0.93,0.25,1.33-1.2,0.4-1.45
				c-6.56-1.74-13.54-1.11-19.69,1.74C176.81,121.58,177.57,122.87,178.44,122.47L178.44,122.47z"/>
		</g>
	</g>
	<g>
		<path class="st1" d="M163.17,134.91c4.32-2.18,10-1.42,13.57,1.8"/>
		<g>
			<path class="st2" d="M163.55,135.56c4.05-2,9.27-1.32,12.66,1.69c0.72,0.64,1.78-0.42,1.06-1.06c-3.91-3.48-9.79-4.23-14.47-1.92
				C161.92,134.69,162.68,135.98,163.55,135.56L163.55,135.56z"/>
		</g>
	</g>
	<g>
		<path class="st1" d="M185.1,155.56c4-2.35,9.56-1.8,13,1.29"/>
		<g>
			<path class="st2" d="M185.48,156.21c3.76-2.16,8.83-1.7,12.09,1.18c0.72,0.64,1.79-0.42,1.06-1.06
				c-3.77-3.32-9.55-3.92-13.91-1.41C183.88,155.39,184.64,156.69,185.48,156.21L185.48,156.21z"/>
		</g>
	</g>
	<g>
		<g>
			<path class="st2" d="M183.18,135.86c5.04-1.48,10.74,0.27,14.05,4.35c0.61,0.75,1.66-0.32,1.06-1.06
				c-3.63-4.48-10-6.35-15.51-4.74C181.86,134.69,182.25,136.13,183.18,135.86L183.18,135.86z"/>
		</g>
	</g>
	<g>
		<path class="st1" d="M159.82,150.02c0.09-2.27,2.37-3.99,4.67-4.3s4.6,0.41,6.8,1.13"/>
		<g>
			<path class="st2" d="M160.57,150.02c0.11-1.81,1.85-3.05,3.48-3.46c2.34-0.59,4.83,0.29,7.05,1.01c0.92,0.3,1.31-1.15,0.4-1.45
				c-2.62-0.86-5.58-1.79-8.32-0.87c-2.13,0.71-3.96,2.43-4.11,4.76C159.01,150.98,160.51,150.98,160.57,150.02L160.57,150.02z"/>
		</g>
	</g>
	<g>
		<path class="st1" d="M214.39,91.19c2.36-0.65,4.78-1.3,7.22-1.07c2.44,0.23,4.93,1.55,5.79,3.79"/>
		<g>
			<path class="st2" d="M214.59,91.91c2.39-0.66,4.97-1.41,7.48-0.98c1.87,0.32,3.86,1.33,4.61,3.18c0.36,0.88,1.81,0.5,1.45-0.4
				c-0.91-2.23-2.98-3.64-5.29-4.15c-2.9-0.64-5.86,0.14-8.65,0.91C213.27,90.72,213.66,92.16,214.59,91.91L214.59,91.91z"/>
		</g>
	</g>
	<g>
		<path class="st1" d="M240.68,104.75c0.87-3.29,3.99-5.72,7.38-6.46c3.39-0.74,6.98-0.01,10.15,1.37"/>
		<g>
			<path class="st2" d="M241.4,104.95c0.8-2.83,3.25-4.87,6-5.71c3.45-1.06,7.2-0.31,10.44,1.07c0.88,0.37,1.64-0.92,0.76-1.3
				c-3.68-1.57-7.93-2.45-11.84-1.14c-3.15,1.05-5.88,3.42-6.8,6.68C239.69,105.48,241.14,105.88,241.4,104.95L241.4,104.95z"/>
		</g>
	</g>
	<g>
		<path class="st1" d="M217.51,110.61c3.19,0.99,5.77,3.66,6.6,6.83"/>
		<g>
			<path class="st2" d="M217.31,111.33c2.92,0.92,5.29,3.34,6.07,6.31c0.25,0.93,1.69,0.54,1.45-0.4c-0.92-3.48-3.71-6.28-7.12-7.36
				C216.79,109.6,216.39,111.04,217.31,111.33L217.31,111.33z"/>
		</g>
	</g>
	<g>
		<path class="st1" d="M247.34,118.4c3.34-5.12,10.6-7.4,16.36-5.13"/>
		<g>
			<path class="st2" d="M247.99,118.78c3.28-4.93,10.04-6.88,15.51-4.78c0.9,0.35,1.29-1.1,0.4-1.45
				c-6.12-2.34-13.58,0.02-17.2,5.47C246.15,118.83,247.45,119.58,247.99,118.78L247.99,118.78z"/>
		</g>
	</g>
	<g>
		<path class="st1" d="M226.71,131.92c2.87-1.44,5.83-2.9,9.04-3.16c3.21-0.26,6.77,1,8.24,3.8"/>
		<g>
			<path class="st2" d="M227.09,132.57c2.96-1.48,6.12-3.1,9.51-3.09c2.63,0.01,5.42,1.06,6.74,3.46c0.47,0.85,1.76,0.09,1.3-0.76
				c-1.49-2.72-4.55-4.04-7.55-4.19c-3.83-0.19-7.43,1.61-10.75,3.28C225.47,131.71,226.23,133,227.09,132.57L227.09,132.57z"/>
		</g>
	</g>
	<g>
		<path class="st1" d="M255.75,131.42c3.7-1.11,8.09,0.71,9.83,4.08"/>
		<g>
			<path class="st2" d="M255.95,132.14c3.4-0.99,7.32,0.6,8.99,3.74c0.45,0.85,1.75,0.1,1.3-0.76c-1.97-3.72-6.67-5.6-10.68-4.43
				C254.63,130.96,255.02,132.41,255.95,132.14L255.95,132.14z"/>
		</g>
	</g>
	<g>
		<path class="st1" d="M229.79,140.66c-2.87-0.45-5.83-0.91-8.67-0.28c-2.84,0.63-5.57,2.61-6.14,5.4"/>
		<g>
			<path class="st2" d="M229.99,139.94c-3.37-0.53-7.01-1.12-10.3,0.08c-2.53,0.93-4.82,2.84-5.43,5.56
				c-0.21,0.94,1.23,1.34,1.45,0.4c0.53-2.35,2.57-3.95,4.79-4.65c2.94-0.93,6.13-0.41,9.1,0.06
				C230.53,141.53,230.94,140.09,229.99,139.94L229.99,139.94z"/>
		</g>
	</g>
	<g>
		<path class="st1" d="M239.09,145c6.8-2.08,14.74-4.02,20.62-0.08"/>
		<g>
			<path class="st2" d="M239.29,145.73c6.33-1.93,14.02-4.08,20.04-0.16c0.81,0.53,1.56-0.77,0.76-1.3c-6.37-4.16-14.47-2.05-21.2,0
				C237.97,144.56,238.36,146.01,239.29,145.73L239.29,145.73z"/>
		</g>
	</g>
	<g>
		<path class="st1" d="M216.24,157.99c5.43-0.56,10.92,3.59,11.73,8.87"/>
		<g>
			<path class="st2" d="M216.24,158.74c5.09-0.48,10.17,3.22,11.01,8.32c0.16,0.95,1.6,0.55,1.45-0.4
				c-0.93-5.7-6.77-9.95-12.46-9.42C215.29,157.33,215.28,158.83,216.24,158.74L216.24,158.74z"/>
		</g>
	</g>
	<g>
		<path class="st1" d="M234.11,157.25c3.5-0.12,6.83-2.33,10.27-1.71c2.06,0.37,3.88,1.81,4.68,3.7"/>
		<g>
			<path class="st2" d="M234.11,158c2.83-0.14,5.39-1.51,8.19-1.78c2.61-0.25,5.02,0.96,6.11,3.39c0.39,0.88,1.69,0.12,1.3-0.76
				c-1.13-2.52-3.69-4.12-6.43-4.17c-3.17-0.07-6.03,1.66-9.17,1.82C233.15,156.55,233.15,158.05,234.11,158L234.11,158z"/>
		</g>
	</g>
</g>
<g>
	<circle class="st3" cx="242.05" cy="118.82" r="12.77"/>
	<circle class="st3" cx="192.5" cy="118.08" r="12.38"/>
	<g>
		<g>
			<path d="M241.95,120c1.93,0,1.93-3,0-3C240.02,117,240.01,120,241.95,120L241.95,120z"/>
		</g>
	</g>
	<g>
		<g>
			<path d="M195.4,120c1.93,0,1.93-3,0-3C193.47,117,193.47,120,195.4,120L195.4,120z"/>
		</g>
	</g>
	<g>
		<g>
			<path d="M257.11,117.9c8.01-4.31,15.79-9.03,23.31-14.15c1.86-1.27,3.71-2.56,5.54-3.88c1.73-1.25,3.39-2.72,5.23-3.8
				c1.62-0.95,3.56,0.63,4.88,1.59c1.62,1.17,3.02,2.65,4.16,4.29c1.09,1.58,3.69,0.08,2.59-1.51c-1.89-2.73-4.33-5.04-7.25-6.64
				c-1.41-0.77-2.9-1.4-4.52-0.93c-1.64,0.48-2.99,1.77-4.34,2.76c-6.32,4.66-12.85,9.02-19.57,13.09
				c-3.79,2.29-7.64,4.49-11.54,6.59C253.9,116.22,255.41,118.81,257.11,117.9L257.11,117.9z"/>
		</g>
	</g>
	<g>
		<g>
			<path d="M179.73,114.61c-7.52-5.39-15.35-10.34-23.46-14.81c-1.98-1.09-3.97-2.15-5.97-3.18c-1.58-0.81-3.84-2.58-5.68-1.61
				c-0.91,0.48-1.62,1.41-2.35,2.12c-0.94,0.92-1.89,1.85-2.83,2.77c-1.77,1.73-3.54,3.47-5.31,5.2c-1.38,1.35,0.74,3.47,2.12,2.12
				c1.65-1.62,3.3-3.24,4.96-4.86c0.83-0.81,1.65-1.62,2.48-2.43c0.35-0.35,0.71-0.69,1.06-1.04c0.22-0.22,0.74-0.96,1.06-1.04
				c0.55-0.14,1.89,0.8,2.56,1.14c0.97,0.49,1.94,1,2.9,1.51c1.86,0.98,3.7,1.99,5.53,3.02c7.38,4.16,14.53,8.73,21.42,13.67
				C179.78,118.33,181.28,115.73,179.73,114.61L179.73,114.61z"/>
		</g>
	</g>
	<g>
		<path class="st4" d="M198.82,140.33c1.43,4.09,3.15,8.15,5.84,11.4s6.48,5.6,10.45,5.52c4.2-0.09,7.96-2.82,10.98-5.99
			c3.33-3.49,6.2-7.9,6.61-12.96c-11.24,2.2-22.83,2.34-34.15,0.42"/>
		<g>
			<path d="M197.37,140.73c2.45,6.98,6.09,14.7,13.58,17.34c7.42,2.61,14.24-2.91,18.52-8.45c2.57-3.33,4.33-7.1,4.73-11.32
				c0.1-1.04-1.03-1.61-1.9-1.45c-10.98,2.12-22.32,2.26-33.35,0.42c-1.89-0.32-2.7,2.57-0.8,2.89c11.6,1.94,23.4,1.81,34.95-0.42
				c-0.63-0.48-1.27-0.96-1.9-1.45c-0.38,4.05-2.47,7.71-5.11,10.74c-2.53,2.91-5.72,5.84-9.64,6.58c-3.93,0.74-7.65-1.52-10.2-4.33
				c-2.9-3.2-4.58-7.34-5.99-11.35C199.63,138.13,196.73,138.9,197.37,140.73L197.37,140.73z"/>
		</g>
	</g>
	<g>
		<g>
			<path d="M207.19,121.37c3.12-2.43,7.58-2.66,11.37-2.6c3.47,0.06,7.18,0.7,9.43,3.59c0.5,0.65,1.59,0.52,2.12,0
				c0.64-0.63,0.49-1.48,0-2.12c-2.71-3.49-7.36-4.4-11.55-4.47c-4.72-0.08-9.67,0.49-13.49,3.48
				C203.55,120.43,205.68,122.54,207.19,121.37L207.19,121.37z"/>
		</g>
	</g>
</g>
<g>
	<g>
		<path d="M152.01,133.68c-11.75,3.52-23.5,7.05-35.24,10.57c-1.14,0.34-2.36,1.59-2.2,2.89c0.32,2.61,0.41,5.21,0.26,7.83
			c-0.09,1.62,1.44,3,3,3c1.7,0,2.91-1.38,3-3c0.15-2.62,0.06-5.23-0.26-7.83c-0.73,0.96-1.47,1.93-2.2,2.89
			c11.75-3.52,23.5-7.05,35.24-10.57C157.29,138.36,155.72,132.57,152.01,133.68L152.01,133.68z"/>
	</g>
</g>
<g>
	<g>
		<path d="M273.92,126.38c7.12-0.35,14.25-0.23,21.35,0.38c1.77,0.15,3.55,0.34,5.31,0.55c0.7,0.08,1.4,0.17,2.09,0.27
			c-0.04-0.01,1.13,0.18,1.12,0.19c-0.21,0.4-1.11-1.96-0.94-0.32c0.37,3.56,0.8,7.11,1.2,10.66c0.18,1.61,1.25,3,3,3
			c1.48,0,3.18-1.38,3-3c-0.47-4.13-0.74-8.33-1.42-12.43c-0.37-2.22-1.95-3.54-4.13-3.86c-2.11-0.31-4.22-0.57-6.34-0.79
			c-8.06-0.84-16.17-1.05-24.25-0.66c-1.62,0.08-3,1.32-3,3C270.92,124.95,272.3,126.46,273.92,126.38L273.92,126.38z"/>
	</g>
</g>
<g>
	<g>
		<path d="M291.79,142.99c8.2-0.36,16.41-0.26,24.6,0.31c0.53,0.04,5.89,0.42,5.89,0.49c-0.29-0.51-0.46-0.54-0.51-0.08
			c-0.08,0.21-0.15,0.41-0.21,0.62c-0.14,0.42-0.26,0.84-0.37,1.26c-0.24,0.91-0.41,1.83-0.53,2.77c-0.48,3.63-0.11,7.33,1.11,10.79
			c0.63,1.81,3.53,1.03,2.89-0.8c-1.33-3.78-1.61-7.85-0.63-11.75c0.39-1.55,1.62-3.63,0.26-5.05c-0.66-0.68-1.6-0.73-2.49-0.82
			c-1.06-0.11-2.12-0.19-3.19-0.28c-8.92-0.71-17.87-0.86-26.81-0.48C289.87,140.07,289.86,143.07,291.79,142.99L291.79,142.99z"/>
	</g>
</g>
<g>
	<g>
		<path d="M289.44,141.7c1.02,5.63,1.6,11.31,1.75,17.03c0.05,1.93,3.05,1.93,3,0c-0.16-5.98-0.79-11.94-1.86-17.83
			c-0.14-0.8-1.11-1.25-1.85-1.05C289.65,140.09,289.3,140.9,289.44,141.7L289.44,141.7z"/>
	</g>
</g>
<path class="st5" d="M324.5,192.37h-34.86c-6.6,0-12-5.4-12-12v-18.72c0-6.6,5.4-12,12-12h34.86c6.6,0,12,5.4,12,12v18.72
	C336.5,186.97,331.1,192.37,324.5,192.37z"/>
<g>
	<path class="st6" d="M196.84,162.72c-1.76-1.76-3.81-3.12-5.99-3.97c-2.2,7.21-3.52,14.8-3.89,22.47c-0.06,1.2-0.03,2.59,0.76,3.34
		c0.95,0.91,2.35,0.31,3.45-0.33c5.77-3.34,11.55-6.68,17.32-10.02c0.38-0.22,0.81-0.56,0.76-1.05c-0.03-0.31-0.25-0.55-0.46-0.74
		c-5.43-5.12-11.13-9.82-17.07-14.06"/>
	<g>
		<path d="M197.9,161.66c-1.94-1.9-4.14-3.34-6.65-4.35c-0.77-0.31-1.63,0.34-1.85,1.05c-1.62,5.37-2.75,10.86-3.4,16.42
			c-0.37,3.09-2.31,12.71,3.63,11.68c1.07-0.18,2.01-0.76,2.94-1.29c1.34-0.77,2.68-1.55,4.01-2.32c2.46-1.43,4.93-2.85,7.39-4.28
			c1.2-0.69,2.39-1.38,3.59-2.08c0.99-0.57,2.42-1.12,2.95-2.23c0.48-1.01,0.17-2.01-0.55-2.8c-0.97-1.05-2.12-1.99-3.19-2.94
			c-4.55-4.08-9.32-7.9-14.29-11.46c-1.57-1.13-3.07,1.47-1.51,2.59c3.63,2.6,7.14,5.35,10.54,8.25c1.71,1.45,3.38,2.94,5.03,4.47
			c0.04,0.04,1.15,1.14,1.19,1.11c0-0.09,0-0.19,0-0.28c0.08-0.4-0.06-0.41-0.42-0.04c-0.21,0.07-0.44,0.25-0.63,0.37
			c-1.06,0.61-2.11,1.22-3.17,1.83c-4.08,2.36-8.17,4.72-12.25,7.09c-0.42,0.24-1.79,1.28-2.36,1.08c-0.62-0.23-0.46-1.62-0.45-2.13
			c0.08-2.29,0.3-4.59,0.57-6.86c0.63-5.21,1.75-10.36,3.27-15.39c-0.62,0.35-1.23,0.7-1.85,1.05c2.02,0.81,3.78,2.07,5.33,3.58
			C197.16,165.13,199.28,163.01,197.9,161.66L197.9,161.66z"/>
	</g>
</g>
<g>
	<path class="st6" d="M227.79,162.72c1.51-1.76,3.26-3.12,5.13-3.97c1.88,7.21,3.01,14.8,3.33,22.47c0.05,1.2,0.02,2.59-0.65,3.34
		c-0.81,0.91-2.01,0.31-2.95-0.33c-4.94-3.34-9.88-6.68-14.82-10.02c-0.32-0.22-0.7-0.56-0.65-1.05c0.03-0.31,0.22-0.55,0.4-0.74
		c4.65-5.12,9.53-9.82,14.61-14.06"/>
	<g>
		<path d="M228.85,163.78c1.38-1.58,2.93-2.83,4.83-3.73c-0.73-0.3-1.47-0.6-2.2-0.9c1.09,4.2,1.94,8.47,2.49,12.78
			c0.27,2.13,0.48,4.27,0.63,6.41c0.04,0.66,0.63,4.93-0.06,5.2c-0.31,0.12-1.6-0.93-1.95-1.16c-0.96-0.65-1.92-1.3-2.88-1.95
			c-1.92-1.3-3.84-2.6-5.77-3.9c-0.89-0.6-1.78-1.21-2.68-1.81c-0.41-0.28-0.82-0.56-1.24-0.83c-0.21-0.14-0.41-0.28-0.62-0.42
			c-0.3-0.2-0.82-0.81-0.8-0.28c0.02,0.56,0.59-0.34,0.82-0.59c0.37-0.4,0.74-0.8,1.12-1.2c0.75-0.79,1.5-1.58,2.27-2.36
			c3.32-3.38,6.8-6.59,10.43-9.63c1.48-1.24-0.65-3.35-2.12-2.12c-3.93,3.29-7.68,6.79-11.24,10.47c-0.87,0.9-1.73,1.81-2.57,2.72
			c-0.7,0.76-1.61,1.55-1.63,2.67c-0.02,1.03,0.61,1.78,1.4,2.35c1.21,0.87,2.47,1.67,3.71,2.5c2.26,1.53,4.53,3.06,6.79,4.59
			c1.03,0.7,2.06,1.39,3.09,2.09c0.97,0.66,1.95,1.44,3.12,1.73c5.4,1.33,3.87-7.78,3.63-10.46c-0.54-5.94-1.54-11.84-3.04-17.61
			c-0.26-1-1.35-1.3-2.2-0.9c-2.1,0.99-3.91,2.46-5.43,4.2C225.46,163.1,227.58,165.23,228.85,163.78L228.85,163.78z"/>
	</g>
</g>
<circle class="st7" cx="214.39" cy="171.69" r="8.66"/>
</svg>
